<svg width="888" height="186" viewBox="0 0 888 186" fill="none" xmlns="http://www.w3.org/2000/svg">
<g clip-path="url(#clip0_27_4)">
<path d="M754.96 97.6149C754.894 99.1103 754.97 100.974 754.96 102.468C754.888 113.394 754.921 124.322 754.921 135.549C744.758 135.549 735.034 135.549 725 135.549C725 91.8016 725 48.0313 725 4C734.894 4 744.599 4 754.894 4C754.894 29.7746 754.894 55.3686 754.894 82.4551C762.65 73.933 769.454 66.2132 775.975 58.9801C784.284 49.7647 792.371 45.4223 806.617 45.2598C809.808 45.2598 818.72 45.4223 826.151 45.4223C816.772 55.8205 807.838 65.7169 798.848 75.6836C800.342 75.6836 802.309 75.688 803.493 75.6924C813.124 75.7282 822.754 75.6892 832.385 75.7171C862.665 75.8047 886.462 98.275 887.94 129.408C889.292 157.876 867.717 182.085 839.201 185.839C838.205 185.97 836.483 186.124 836.212 185.839C828.569 177.781 819.428 167.971 811.138 158.813C818.867 158.813 825.696 158.879 832.523 158.798C843.004 158.674 851.071 154.057 856.374 145.078C866.189 128.461 856.335 106.589 837.167 104.307C824.962 102.854 812.444 104.035 799.352 104.035C808.686 114.387 817.894 124.597 828.045 135.855C819.22 135.855 811.801 135.995 804.179 136.03C793.367 135.995 787.189 133.724 780.989 125.772C773.461 116.115 763.515 106.892 754.96 97.6149Z" fill="white"/>
<path d="M246.318 65.3445C236.237 66.0584 233.478 71.9055 233.455 81.9334C233.417 98.0977 233.444 114.262 233.444 130.427C233.444 132.055 233.444 133.684 233.444 135.616C223.231 135.616 213.475 135.616 202.928 135.616C202.928 133.922 202.928 132.173 202.928 130.424C202.928 113.926 202.855 97.4276 202.964 80.9306C203.006 74.4989 200.884 69.6581 194.752 66.8449C188.453 63.9553 182.743 65.0095 177.425 69.0026C173.652 71.8355 172.503 75.8535 172.526 80.4623C172.607 96.9596 172.557 113.458 172.557 129.955C172.557 131.747 172.557 133.538 172.557 135.624C162.309 135.624 152.543 135.624 142.351 135.624C142.351 104.481 142.351 73.2606 142.351 41.6448C150.927 41.6448 159.648 41.6448 168.574 41.6448C169.72 46.0529 170.877 50.5007 172.351 56.165C178.228 43.9438 186.989 37.5052 199.945 38.4666C212.561 39.4028 221.501 45.5706 226.239 58.6916C229.1 50.586 234.046 45.196 241.171 41.8625C263.595 31.3721 289.496 45.8108 293.656 71.3338C294.507 76.5571 294.609 81.9391 294.65 87.2511C294.773 103.235 294.694 119.221 294.694 135.564C284.551 135.564 274.634 135.564 263.881 135.564C263.881 133.985 263.881 132.243 263.881 130.502C263.881 114.338 263.887 98.1732 263.879 82.0088C263.873 70.0725 258.724 65.0598 246.318 65.3445Z" fill="white"/>
<path d="M405.383 114.058C405.383 77.1019 405.383 40.6457 405.383 3.79085C415.537 3.79085 425.391 3.79085 435.636 3.79085C435.636 19.5542 435.636 35.2929 435.636 51.9911C446.707 39.6211 460.033 37.243 474.71 39.9393C489.211 42.6032 499.946 50.5393 506.851 63.6079C518.488 85.6313 512.506 115.888 493.783 129.655C479.698 140.011 458.411 141.415 445.928 132.628C442.164 129.979 438.743 126.842 435.958 124.575C435.958 126.851 435.958 131.052 435.958 135.582C425.64 135.582 415.769 135.582 405.383 135.582C405.383 128.464 405.383 121.511 405.383 114.058ZM437.569 98.4024C443.203 112.236 463.226 116.461 475.011 106.301C483.228 99.2177 484.487 82.8787 477.511 73.8679C470.463 64.7642 454.145 62.7963 444.522 70.1336C435.056 77.3517 434.846 87.189 437.569 98.4024Z" fill="white"/>
<path d="M586.808 125.048C579.898 134.887 570.78 138.813 559.098 138.211C536.076 137.025 519.845 123.02 515.418 100.285C511.252 78.8934 516.521 60.6847 534.032 47.3138C545.829 38.3061 559.507 36.3925 573.799 41.0917C580.795 43.3918 585.206 48.7597 589.266 55.4202C590.495 50.2298 591.544 45.8026 592.582 41.4162C601.695 41.4162 610.328 41.4162 619.308 41.4162C619.308 72.8013 619.308 104.029 619.308 135.588C610.58 135.588 601.825 135.588 592.536 135.588C591.542 131.315 590.502 126.846 589.308 121.717C588.302 123.023 587.644 123.878 586.808 125.048ZM579.613 68.4751C578.072 67.8594 576.561 67.1524 574.985 66.6426C564.35 63.2013 552.239 66.9569 547.526 75.1169C542.666 83.5324 544.527 99.1757 551.141 105.495C560.055 114.012 576.213 113.392 583.906 104.237C591.989 94.6188 590.737 75.1169 579.613 68.4751Z" fill="white"/>
<path d="M400.737 96.5584C377.766 96.5718 353.201 96.4626 330.744 96.4626C330.338 103.955 335.983 111.042 344.148 112.866C353.01 114.845 361.412 114.344 367.789 106.486C368.491 105.62 369.99 104.973 371.129 104.958C380.28 104.836 389.433 104.89 399.084 104.89C397.247 114.392 392.678 121.824 385.652 127.735C361.94 147.682 319.642 140.51 305.04 113.392C288.428 82.5421 305.87 40.0777 347.801 38.976C372.896 38.3166 391.016 50.6183 398.213 73.2452C400.331 79.9032 400.237 87.5584 400.699 94.4313C400.757 95.0457 400.737 95.5584 400.737 96.5584ZM367.604 74.0501C362.558 65.6101 354.307 62.0571 344.654 64.1675C337.115 65.816 331.262 71.8068 330.385 78.8748C343.115 78.8748 355.829 78.8748 368.991 78.8748C368.542 77.2753 368.195 76.0381 367.604 74.0501Z" fill="white"/>
<path d="M6.80426 68.0879C4.33012 68.0879 2.34766 68.0879 0 68.0879C0 59.1789 0 50.4739 0 41.3661C8.33179 41.3661 16.6015 41.3661 25.4615 41.3661C25.4615 28.6022 25.4615 16.2165 25.4615 3.62143C35.804 3.62143 45.5511 3.62143 55.7215 3.62143C55.7215 16.0927 55.7215 28.3419 55.7215 41.1262C67.0134 41.1262 77.9035 41.1262 89.1068 41.1262C89.1068 50.2304 89.1068 58.7985 89.1068 67.9268C78.1858 67.9268 67.3028 67.9268 56.0124 67.9268C56.0124 79.5689 55.8645 90.6658 56.0944 101.755C56.1725 105.526 58.8652 107.252 62.6055 107.045C70.4074 106.615 78.2064 106.132 86.0075 105.687C86.9626 105.633 87.9235 105.68 89.1578 105.68C89.1578 115.737 89.1578 125.475 89.1578 136.699C74.9837 135.84 60.7561 136.251 47.0465 133.784C33.5544 131.357 25.8205 119.609 25.5753 105.551C25.3894 94.8956 25.5369 84.2344 25.5361 73.5757C25.536 71.9479 25.5361 70.3202 25.5361 68.0879C19.1684 68.0879 13.2321 68.0879 6.80426 68.0879Z" fill="white"/>
<path d="M658.923 104.77C664.888 111.025 671.992 112.359 679.8 111.009C681.567 110.704 683.737 110.058 684.831 109.132C686.743 107.513 687.737 104.682 688.737 104.663C694.545 104.554 713.163 104.663 719.57 104.663C715.582 119.259 707.066 129.423 693.632 134.753C666.355 145.574 636.111 132.117 626.616 104.354C616.63 75.1582 634.415 42.0177 669.419 39.0561C686.175 37.6385 701.402 41.4996 711.78 56.0496C715.059 60.6466 716.934 66.245 720.013 72.5322C708.906 72.5322 698.801 72.6346 689.237 72.5584C688.563 72.553 688.228 71.8822 687.799 71.3019C682.687 64.3847 675.558 64.5705 668.42 66.2643C661.394 67.9316 656.807 72.5455 655.526 79.9185C654.049 88.4239 653.625 96.8132 658.923 104.77Z" fill="white"/>
<path d="M128.797 76.0584C128.797 96.1811 128.797 115.804 128.797 135.67C118.61 135.67 108.872 135.67 98.8453 135.67C98.8453 104.22 98.8453 72.9963 98.8453 41.5157C108.819 41.5157 118.56 41.5157 128.797 41.5157C128.797 52.9891 128.797 64.2738 128.797 76.0584Z" fill="white"/>
<path d="M120.395 1.0061C128.46 4.84546 132.392 10.8974 131.729 19.4993C131.167 26.8008 127.231 32.0194 120.489 34.6268C113.186 37.4511 106.381 36.0803 100.742 30.4782C94.9136 24.6869 93.9755 15.6527 98.2542 8.40724C102.547 1.13827 110.753 -1.69691 120.395 1.0061Z" fill="white"/>
</g>
<defs>
<clipPath id="clip0_27_4">
<rect width="888" height="186" fill="white"/>
</clipPath>
</defs>
</svg>
