<svg width="199" height="180" viewBox="0 0 199 180" fill="none" xmlns="http://www.w3.org/2000/svg">
<g clip-path="url(#clip0_27_18)">
<path d="M121.432 179.456C110.607 177.871 101.153 173.91 92.4882 168.085C91.1274 167.17 89.4598 165.404 89.4375 164.008C89.2123 149.891 89.3002 135.77 89.3002 119.86C93.1365 123.255 95.8538 125.706 98.6224 128.099C103.151 132.012 107.437 136.28 112.314 139.703C126.466 149.635 145.037 147.25 156.045 134.448C166.919 121.803 167.226 101.374 155.695 89.6399C145.727 79.4958 134.693 70.3995 123.251 60.0438C123.251 77.8871 123.251 94.5637 123.251 112.15C121.428 110.999 120.279 110.479 119.383 109.676C110.329 101.573 101.241 93.5044 92.3634 85.2109C90.8519 83.7988 89.4363 81.3758 89.4209 79.4084C89.2249 54.4218 89.2905 29.4332 89.3061 4.44502C89.3066 3.64954 89.3061 2.22136 89.3061 1.47755C90.8061 1.47755 92.694 1.47857 94.1427 1.47755C118.131 1.46071 142.12 1.52088 166.108 1.39821C169.235 1.38222 171.33 2.18661 173.251 4.75826C180.607 14.6032 188.189 24.279 196.266 34.7705C179.79 34.7705 164.169 34.7705 148.548 34.7705C147.871 34.7705 147.366 34.7705 146.866 34.7705C147.866 35.7705 150.35 38.3018 151.61 39.4825C162.643 49.8249 174.663 59.3807 184.245 70.947C202.474 92.9508 203.539 118.134 191.204 143.046C178.598 168.508 156.61 180.302 128.298 180.295C126.154 180.295 124.011 179.778 121.432 179.456Z" fill="white"/>
<circle cx="40" cy="133" r="39" fill="white"/>
<circle cx="39" cy="39" r="39" fill="white"/>
</g>
<defs>
<clipPath id="clip0_27_18">
<rect width="199" height="180" fill="white"/>
</clipPath>
</defs>
</svg>
